<?xml version="1.0" encoding="UTF-8" standalone="no"?>
<!DOCTYPE svg PUBLIC "-//W3C//DTD SVG 1.1//EN"
 "http://www.w3.org/Graphics/SVG/1.1/DTD/svg11.dtd">
<!-- Generated by graphviz version 2.47.0 (20210316.0004)
 -->
<!-- Title: dependencies Pages: 1 -->
<svg width="4048pt" height="284pt"
 viewBox="0.00 0.00 4048.00 284.00" xmlns="http://www.w3.org/2000/svg" xmlns:xlink="http://www.w3.org/1999/xlink">
<g id="graph0" class="graph" transform="scale(1 1) rotate(0) translate(4 280)">
<title>dependencies</title>
<polygon fill="white" stroke="transparent" points="-4,4 -4,-280 4044,-280 4044,4 -4,4"/>
<text text-anchor="start" x="1999.01" y="-42.4" font-family="Times-12" font-weight="bold" font-size="14.00">Legend</text>
<polygon fill="#ffffb3" stroke="transparent" points="1786,-10 1786,-30 1806,-30 1806,-10 1786,-10"/>
<text text-anchor="start" x="1809.63" y="-15.4" font-family="Times-12" font-size="14.00"> &#160;Declarations</text>
<polygon fill="#8dd3c7" stroke="transparent" points="1899,-10 1899,-30 1919,-30 1919,-10 1899,-10"/>
<text text-anchor="start" x="1922.73" y="-15.4" font-family="Times-12" font-size="14.00"> &#160;Module</text>
<polygon fill="#80b1d3" stroke="transparent" points="1985,-10 1985,-30 2005,-30 2005,-10 1985,-10"/>
<text text-anchor="start" x="2008.78" y="-15.4" font-family="Times-12" font-size="14.00"> &#160;Bootstrap</text>
<polygon fill="#fdb462" stroke="transparent" points="2082,-10 2082,-30 2102,-30 2102,-10 2082,-10"/>
<text text-anchor="start" x="2105.67" y="-15.4" font-family="Times-12" font-size="14.00"> &#160;Providers</text>
<polygon fill="#fb8072" stroke="transparent" points="2178,-10 2178,-30 2198,-30 2198,-10 2178,-10"/>
<text text-anchor="start" x="2201.73" y="-15.4" font-family="Times-12" font-size="14.00"> &#160;Exports</text>
<g id="clust1" class="cluster">
<title>cluster_AdminModule</title>
<polygon fill="none" stroke="black" stroke-dasharray="1,5" points="8,-70 8,-195 797,-195 797,-70 8,-70"/>
</g>
<g id="clust2" class="cluster">
<title>cluster_AdminModule_declarations</title>
<polygon fill="none" stroke="black" points="184,-78 184,-130 789,-130 789,-78 184,-78"/>
</g>
<g id="clust7" class="cluster">
<title>cluster_AdminModule_imports</title>
<polygon fill="none" stroke="black" points="16,-78 16,-130 176,-130 176,-78 16,-78"/>
</g>
<g id="clust17" class="cluster">
<title>cluster_AppModule</title>
<polygon fill="none" stroke="black" stroke-dasharray="1,5" points="805,-70 805,-268 1223,-268 1223,-70 805,-70"/>
</g>
<g id="clust18" class="cluster">
<title>cluster_AppModule_declarations</title>
<polygon fill="none" stroke="black" points="965,-78 965,-130 1215,-130 1215,-78 965,-78"/>
</g>
<g id="clust21" class="cluster">
<title>cluster_AppModule_imports</title>
<polygon fill="none" stroke="black" points="813,-78 813,-130 957,-130 957,-78 813,-78"/>
</g>
<g id="clust23" class="cluster">
<title>cluster_AppModule_bootstrap</title>
<polygon fill="none" stroke="black" points="966,-208 966,-260 1090,-260 1090,-208 966,-208"/>
</g>
<g id="clust31" class="cluster">
<title>cluster_AuthModule</title>
<polygon fill="none" stroke="black" stroke-dasharray="1,5" points="1231,-70 1231,-195 1673,-195 1673,-70 1231,-70"/>
</g>
<g id="clust32" class="cluster">
<title>cluster_AuthModule_declarations</title>
<polygon fill="none" stroke="black" points="1395,-78 1395,-130 1665,-130 1665,-78 1395,-78"/>
</g>
<g id="clust35" class="cluster">
<title>cluster_AuthModule_imports</title>
<polygon fill="none" stroke="black" points="1239,-78 1239,-130 1387,-130 1387,-78 1239,-78"/>
</g>
<g id="clust45" class="cluster">
<title>cluster_PublicModule</title>
<polygon fill="none" stroke="black" stroke-dasharray="1,5" points="1681,-70 1681,-195 2585,-195 2585,-70 1681,-70"/>
</g>
<g id="clust46" class="cluster">
<title>cluster_PublicModule_declarations</title>
<polygon fill="none" stroke="black" points="1853,-78 1853,-130 2577,-130 2577,-78 1853,-78"/>
</g>
<g id="clust51" class="cluster">
<title>cluster_PublicModule_imports</title>
<polygon fill="none" stroke="black" points="1689,-78 1689,-130 1845,-130 1845,-78 1689,-78"/>
</g>
<g id="clust61" class="cluster">
<title>cluster_ServiceModule</title>
<polygon fill="none" stroke="black" stroke-dasharray="1,5" points="2593,-70 2593,-195 3311,-195 3311,-70 2593,-70"/>
</g>
<g id="clust62" class="cluster">
<title>cluster_ServiceModule_declarations</title>
<polygon fill="none" stroke="black" points="2771,-78 2771,-130 3303,-130 3303,-78 2771,-78"/>
</g>
<g id="clust67" class="cluster">
<title>cluster_ServiceModule_imports</title>
<polygon fill="none" stroke="black" points="2601,-78 2601,-130 2763,-130 2763,-78 2601,-78"/>
</g>
<g id="clust77" class="cluster">
<title>cluster_UserModule</title>
<polygon fill="none" stroke="black" stroke-dasharray="1,5" points="3319,-70 3319,-195 4032,-195 4032,-70 3319,-70"/>
</g>
<g id="clust78" class="cluster">
<title>cluster_UserModule_declarations</title>
<polygon fill="none" stroke="black" points="3483,-78 3483,-130 4024,-130 4024,-78 3483,-78"/>
</g>
<g id="clust83" class="cluster">
<title>cluster_UserModule_imports</title>
<polygon fill="none" stroke="black" points="3327,-78 3327,-130 3475,-130 3475,-78 3327,-78"/>
</g>
<!-- AheaderComponent -->
<g id="node1" class="node">
<title>AheaderComponent</title>
<polygon fill="#ffffb3" stroke="black" points="781.24,-122 652.76,-122 652.76,-86 781.24,-86 781.24,-122"/>
<text text-anchor="middle" x="717" y="-99.8" font-family="Times,serif" font-size="14.00">AheaderComponent</text>
</g>
<!-- AdminModule -->
<g id="node5" class="node">
<title>AdminModule</title>
<polygon fill="#8dd3c7" stroke="black" points="468.44,-187 465.44,-191 444.44,-191 441.44,-187 369.56,-187 369.56,-151 468.44,-151 468.44,-187"/>
<text text-anchor="middle" x="419" y="-164.8" font-family="Times,serif" font-size="14.00">AdminModule</text>
</g>
<!-- AheaderComponent&#45;&gt;AdminModule -->
<g id="edge1" class="edge">
<title>AheaderComponent&#45;&gt;AdminModule</title>
<path fill="none" stroke="black" d="M717,-122.11C717,-141.34 717,-169 717,-169 717,-169 478.54,-169 478.54,-169"/>
<polygon fill="black" stroke="black" points="478.54,-165.5 468.54,-169 478.54,-172.5 478.54,-165.5"/>
</g>
<!-- AlayoutComponent -->
<g id="node2" class="node">
<title>AlayoutComponent</title>
<polygon fill="#ffffb3" stroke="black" points="634.44,-122 507.56,-122 507.56,-86 634.44,-86 634.44,-122"/>
<text text-anchor="middle" x="571" y="-99.8" font-family="Times,serif" font-size="14.00">AlayoutComponent</text>
</g>
<!-- AlayoutComponent&#45;&gt;AdminModule -->
<g id="edge2" class="edge">
<title>AlayoutComponent&#45;&gt;AdminModule</title>
<path fill="none" stroke="black" d="M571,-122.03C571,-138.4 571,-160 571,-160 571,-160 478.35,-160 478.35,-160"/>
<polygon fill="black" stroke="black" points="478.35,-156.5 468.35,-160 478.35,-163.5 478.35,-156.5"/>
</g>
<!-- DashboardComponent -->
<g id="node3" class="node">
<title>DashboardComponent</title>
<polygon fill="#ffffb3" stroke="black" points="489.97,-122 348.03,-122 348.03,-86 489.97,-86 489.97,-122"/>
<text text-anchor="middle" x="419" y="-99.8" font-family="Times,serif" font-size="14.00">DashboardComponent</text>
</g>
<!-- DashboardComponent&#45;&gt;AdminModule -->
<g id="edge3" class="edge">
<title>DashboardComponent&#45;&gt;AdminModule</title>
<path fill="none" stroke="black" d="M419,-122.11C419,-122.11 419,-140.99 419,-140.99"/>
<polygon fill="black" stroke="black" points="415.5,-140.99 419,-150.99 422.5,-140.99 415.5,-140.99"/>
</g>
<!-- SidemenuComponent -->
<g id="node4" class="node">
<title>SidemenuComponent</title>
<polygon fill="#ffffb3" stroke="black" points="329.83,-122 192.17,-122 192.17,-86 329.83,-86 329.83,-122"/>
<text text-anchor="middle" x="261" y="-99.8" font-family="Times,serif" font-size="14.00">SidemenuComponent</text>
</g>
<!-- SidemenuComponent&#45;&gt;AdminModule -->
<g id="edge4" class="edge">
<title>SidemenuComponent&#45;&gt;AdminModule</title>
<path fill="none" stroke="black" d="M261,-122.02C261,-139.37 261,-163 261,-163 261,-163 359.44,-163 359.44,-163"/>
<polygon fill="black" stroke="black" points="359.44,-166.5 369.44,-163 359.44,-159.5 359.44,-166.5"/>
</g>
<!-- AdminRoutingModule -->
<g id="node6" class="node">
<title>AdminRoutingModule</title>
<polygon fill="#8dd3c7" stroke="black" points="167.56,-122 164.56,-126 143.56,-126 140.56,-122 24.44,-122 24.44,-86 167.56,-86 167.56,-122"/>
<text text-anchor="middle" x="96" y="-99.8" font-family="Times,serif" font-size="14.00">AdminRoutingModule</text>
</g>
<!-- AdminRoutingModule&#45;&gt;AdminModule -->
<g id="edge5" class="edge">
<title>AdminRoutingModule&#45;&gt;AdminModule</title>
<path fill="none" stroke="black" d="M96,-122.28C96,-143.32 96,-175 96,-175 96,-175 359.59,-175 359.59,-175"/>
<polygon fill="black" stroke="black" points="359.59,-178.5 369.59,-175 359.59,-171.5 359.59,-178.5"/>
</g>
<!-- AppComponent -->
<g id="node7" class="node">
<title>AppComponent</title>
<polygon fill="#ffffb3" stroke="black" points="1206.94,-122 1101.06,-122 1101.06,-86 1206.94,-86 1206.94,-122"/>
<text text-anchor="middle" x="1154" y="-99.8" font-family="Times,serif" font-size="14.00">AppComponent</text>
</g>
<!-- AppModule -->
<g id="node9" class="node">
<title>AppModule</title>
<polygon fill="#8dd3c7" stroke="black" points="1069.66,-187 1066.66,-191 1045.66,-191 1042.66,-187 986.34,-187 986.34,-151 1069.66,-151 1069.66,-187"/>
<text text-anchor="middle" x="1028" y="-164.8" font-family="Times,serif" font-size="14.00">AppModule</text>
</g>
<!-- AppComponent&#45;&gt;AppModule -->
<g id="edge6" class="edge">
<title>AppComponent&#45;&gt;AppModule</title>
<path fill="none" stroke="black" d="M1154,-122.28C1154,-143.32 1154,-175 1154,-175 1154,-175 1079.96,-175 1079.96,-175"/>
<polygon fill="black" stroke="black" points="1079.96,-171.5 1069.96,-175 1079.96,-178.5 1079.96,-171.5"/>
</g>
<!-- ErrorComponent -->
<g id="node8" class="node">
<title>ErrorComponent</title>
<polygon fill="#ffffb3" stroke="black" points="1083.37,-122 972.63,-122 972.63,-86 1083.37,-86 1083.37,-122"/>
<text text-anchor="middle" x="1028" y="-99.8" font-family="Times,serif" font-size="14.00">ErrorComponent</text>
</g>
<!-- ErrorComponent&#45;&gt;AppModule -->
<g id="edge7" class="edge">
<title>ErrorComponent&#45;&gt;AppModule</title>
<path fill="none" stroke="black" d="M1028,-122.11C1028,-122.11 1028,-140.99 1028,-140.99"/>
<polygon fill="black" stroke="black" points="1024.5,-140.99 1028,-150.99 1031.5,-140.99 1024.5,-140.99"/>
</g>
<!-- AppComponent  -->
<g id="node11" class="node">
<title>AppComponent </title>
<polygon fill="#80b1d3" stroke="black" points="1082.44,-252 973.56,-252 973.56,-216 1082.44,-216 1082.44,-252"/>
<text text-anchor="middle" x="1028" y="-229.8" font-family="Times,serif" font-size="14.00">AppComponent </text>
</g>
<!-- AppModule&#45;&gt;AppComponent  -->
<g id="edge9" class="edge">
<title>AppModule&#45;&gt;AppComponent </title>
<path fill="none" stroke="black" stroke-dasharray="1,5" d="M1028,-187.11C1028,-187.11 1028,-205.99 1028,-205.99"/>
<polygon fill="black" stroke="black" points="1024.5,-205.99 1028,-215.99 1031.5,-205.99 1024.5,-205.99"/>
</g>
<!-- AppRoutingModule -->
<g id="node10" class="node">
<title>AppRoutingModule</title>
<polygon fill="#8dd3c7" stroke="black" points="949.27,-122 946.27,-126 925.27,-126 922.27,-122 820.73,-122 820.73,-86 949.27,-86 949.27,-122"/>
<text text-anchor="middle" x="885" y="-99.8" font-family="Times,serif" font-size="14.00">AppRoutingModule</text>
</g>
<!-- AppRoutingModule&#45;&gt;AppModule -->
<g id="edge8" class="edge">
<title>AppRoutingModule&#45;&gt;AppModule</title>
<path fill="none" stroke="black" d="M885,-122.29C885,-144.21 885,-178 885,-178 885,-178 976.25,-178 976.25,-178"/>
<polygon fill="black" stroke="black" points="976.25,-181.5 986.25,-178 976.25,-174.5 976.25,-181.5"/>
</g>
<!-- LoginComponent -->
<g id="node12" class="node">
<title>LoginComponent</title>
<polygon fill="#ffffb3" stroke="black" points="1657.28,-122 1542.72,-122 1542.72,-86 1657.28,-86 1657.28,-122"/>
<text text-anchor="middle" x="1600" y="-99.8" font-family="Times,serif" font-size="14.00">LoginComponent</text>
</g>
<!-- AuthModule -->
<g id="node14" class="node">
<title>AuthModule</title>
<polygon fill="#8dd3c7" stroke="black" points="1507.55,-187 1504.55,-191 1483.55,-191 1480.55,-187 1420.45,-187 1420.45,-151 1507.55,-151 1507.55,-187"/>
<text text-anchor="middle" x="1464" y="-164.8" font-family="Times,serif" font-size="14.00">AuthModule</text>
</g>
<!-- LoginComponent&#45;&gt;AuthModule -->
<g id="edge10" class="edge">
<title>LoginComponent&#45;&gt;AuthModule</title>
<path fill="none" stroke="black" d="M1600,-122.29C1600,-144.21 1600,-178 1600,-178 1600,-178 1517.78,-178 1517.78,-178"/>
<polygon fill="black" stroke="black" points="1517.78,-174.5 1507.78,-178 1517.78,-181.5 1517.78,-174.5"/>
</g>
<!-- LogoutComponent -->
<g id="node13" class="node">
<title>LogoutComponent</title>
<polygon fill="#ffffb3" stroke="black" points="1524.78,-122 1403.22,-122 1403.22,-86 1524.78,-86 1524.78,-122"/>
<text text-anchor="middle" x="1464" y="-99.8" font-family="Times,serif" font-size="14.00">LogoutComponent</text>
</g>
<!-- LogoutComponent&#45;&gt;AuthModule -->
<g id="edge11" class="edge">
<title>LogoutComponent&#45;&gt;AuthModule</title>
<path fill="none" stroke="black" d="M1464,-122.11C1464,-122.11 1464,-140.99 1464,-140.99"/>
<polygon fill="black" stroke="black" points="1460.5,-140.99 1464,-150.99 1467.5,-140.99 1460.5,-140.99"/>
</g>
<!-- AuthRoutingModule -->
<g id="node15" class="node">
<title>AuthRoutingModule</title>
<polygon fill="#8dd3c7" stroke="black" points="1379.17,-122 1376.17,-126 1355.17,-126 1352.17,-122 1246.83,-122 1246.83,-86 1379.17,-86 1379.17,-122"/>
<text text-anchor="middle" x="1313" y="-99.8" font-family="Times,serif" font-size="14.00">AuthRoutingModule</text>
</g>
<!-- AuthRoutingModule&#45;&gt;AuthModule -->
<g id="edge12" class="edge">
<title>AuthRoutingModule&#45;&gt;AuthModule</title>
<path fill="none" stroke="black" d="M1313,-122.02C1313,-139.37 1313,-163 1313,-163 1313,-163 1410.32,-163 1410.32,-163"/>
<polygon fill="black" stroke="black" points="1410.32,-166.5 1420.32,-163 1410.32,-159.5 1410.32,-166.5"/>
</g>
<!-- PheaderComponent -->
<g id="node16" class="node">
<title>PheaderComponent</title>
<polygon fill="#ffffb3" stroke="black" points="2569.42,-122 2442.58,-122 2442.58,-86 2569.42,-86 2569.42,-122"/>
<text text-anchor="middle" x="2506" y="-99.8" font-family="Times,serif" font-size="14.00">PheaderComponent</text>
</g>
<!-- PublicModule -->
<g id="node20" class="node">
<title>PublicModule</title>
<polygon fill="#8dd3c7" stroke="black" points="2219.83,-187 2216.83,-191 2195.83,-191 2192.83,-187 2124.17,-187 2124.17,-151 2219.83,-151 2219.83,-187"/>
<text text-anchor="middle" x="2172" y="-164.8" font-family="Times,serif" font-size="14.00">PublicModule</text>
</g>
<!-- PheaderComponent&#45;&gt;PublicModule -->
<g id="edge13" class="edge">
<title>PheaderComponent&#45;&gt;PublicModule</title>
<path fill="none" stroke="black" d="M2506,-122.27C2506,-140.56 2506,-166 2506,-166 2506,-166 2229.85,-166 2229.85,-166"/>
<polygon fill="black" stroke="black" points="2229.85,-162.5 2219.85,-166 2229.85,-169.5 2229.85,-162.5"/>
</g>
<!-- PlayoutComponent -->
<g id="node17" class="node">
<title>PlayoutComponent</title>
<polygon fill="#ffffb3" stroke="black" points="2425.11,-122 2300.89,-122 2300.89,-86 2425.11,-86 2425.11,-122"/>
<text text-anchor="middle" x="2363" y="-99.8" font-family="Times,serif" font-size="14.00">PlayoutComponent</text>
</g>
<!-- PlayoutComponent&#45;&gt;PublicModule -->
<g id="edge14" class="edge">
<title>PlayoutComponent&#45;&gt;PublicModule</title>
<path fill="none" stroke="black" d="M2363,-122.01C2363,-138.05 2363,-159 2363,-159 2363,-159 2229.7,-159 2229.7,-159"/>
<polygon fill="black" stroke="black" points="2229.7,-155.5 2219.7,-159 2229.7,-162.5 2229.7,-155.5"/>
</g>
<!-- TimelineCommunicationComponent -->
<g id="node18" class="node">
<title>TimelineCommunicationComponent</title>
<polygon fill="#ffffb3" stroke="black" points="2283.1,-122 2060.9,-122 2060.9,-86 2283.1,-86 2283.1,-122"/>
<text text-anchor="middle" x="2172" y="-99.8" font-family="Times,serif" font-size="14.00">TimelineCommunicationComponent</text>
</g>
<!-- TimelineCommunicationComponent&#45;&gt;PublicModule -->
<g id="edge15" class="edge">
<title>TimelineCommunicationComponent&#45;&gt;PublicModule</title>
<path fill="none" stroke="black" d="M2172,-122.11C2172,-122.11 2172,-140.99 2172,-140.99"/>
<polygon fill="black" stroke="black" points="2168.5,-140.99 2172,-150.99 2175.5,-140.99 2168.5,-140.99"/>
</g>
<!-- TimelinePlanningComponent -->
<g id="node19" class="node">
<title>TimelinePlanningComponent</title>
<polygon fill="#ffffb3" stroke="black" points="2042.66,-122 1861.34,-122 1861.34,-86 2042.66,-86 2042.66,-122"/>
<text text-anchor="middle" x="1952" y="-99.8" font-family="Times,serif" font-size="14.00">TimelinePlanningComponent</text>
</g>
<!-- TimelinePlanningComponent&#45;&gt;PublicModule -->
<g id="edge16" class="edge">
<title>TimelinePlanningComponent&#45;&gt;PublicModule</title>
<path fill="none" stroke="black" d="M1952,-122.03C1952,-138.4 1952,-160 1952,-160 1952,-160 2114.26,-160 2114.26,-160"/>
<polygon fill="black" stroke="black" points="2114.26,-163.5 2124.26,-160 2114.26,-156.5 2114.26,-163.5"/>
</g>
<!-- PublicRoutingModule -->
<g id="node21" class="node">
<title>PublicRoutingModule</title>
<polygon fill="#8dd3c7" stroke="black" points="1837.45,-122 1834.45,-126 1813.45,-126 1810.45,-122 1696.55,-122 1696.55,-86 1837.45,-86 1837.45,-122"/>
<text text-anchor="middle" x="1767" y="-99.8" font-family="Times,serif" font-size="14.00">PublicRoutingModule</text>
</g>
<!-- PublicRoutingModule&#45;&gt;PublicModule -->
<g id="edge17" class="edge">
<title>PublicRoutingModule&#45;&gt;PublicModule</title>
<path fill="none" stroke="black" d="M1767,-122.11C1767,-141.34 1767,-169 1767,-169 1767,-169 2113.95,-169 2113.95,-169"/>
<polygon fill="black" stroke="black" points="2113.95,-172.5 2123.95,-169 2113.95,-165.5 2113.95,-172.5"/>
</g>
<!-- SaddComponent -->
<g id="node22" class="node">
<title>SaddComponent</title>
<polygon fill="#ffffb3" stroke="black" points="3294.83,-122 3185.17,-122 3185.17,-86 3294.83,-86 3294.83,-122"/>
<text text-anchor="middle" x="3240" y="-99.8" font-family="Times,serif" font-size="14.00">SaddComponent</text>
</g>
<!-- ServiceModule -->
<g id="node26" class="node">
<title>ServiceModule</title>
<polygon fill="#8dd3c7" stroke="black" points="3022.53,-187 3019.53,-191 2998.53,-191 2995.53,-187 2921.47,-187 2921.47,-151 3022.53,-151 3022.53,-187"/>
<text text-anchor="middle" x="2972" y="-164.8" font-family="Times,serif" font-size="14.00">ServiceModule</text>
</g>
<!-- SaddComponent&#45;&gt;ServiceModule -->
<g id="edge18" class="edge">
<title>SaddComponent&#45;&gt;ServiceModule</title>
<path fill="none" stroke="black" d="M3240,-122.01C3240,-144.49 3240,-180 3240,-180 3240,-180 3032.72,-180 3032.72,-180"/>
<polygon fill="black" stroke="black" points="3032.72,-176.5 3022.72,-180 3032.72,-183.5 3032.72,-176.5"/>
</g>
<!-- SdeleteComponent -->
<g id="node23" class="node">
<title>SdeleteComponent</title>
<polygon fill="#ffffb3" stroke="black" points="3167.04,-122 3044.96,-122 3044.96,-86 3167.04,-86 3167.04,-122"/>
<text text-anchor="middle" x="3106" y="-99.8" font-family="Times,serif" font-size="14.00">SdeleteComponent</text>
</g>
<!-- SdeleteComponent&#45;&gt;ServiceModule -->
<g id="edge19" class="edge">
<title>SdeleteComponent&#45;&gt;ServiceModule</title>
<path fill="none" stroke="black" d="M3106,-122.13C3106,-142.57 3106,-173 3106,-173 3106,-173 3032.66,-173 3032.66,-173"/>
<polygon fill="black" stroke="black" points="3032.66,-169.5 3022.66,-173 3032.66,-176.5 3032.66,-169.5"/>
</g>
<!-- SeditComponent -->
<g id="node24" class="node">
<title>SeditComponent</title>
<polygon fill="#ffffb3" stroke="black" points="3027.11,-122 2916.89,-122 2916.89,-86 3027.11,-86 3027.11,-122"/>
<text text-anchor="middle" x="2972" y="-99.8" font-family="Times,serif" font-size="14.00">SeditComponent</text>
</g>
<!-- SeditComponent&#45;&gt;ServiceModule -->
<g id="edge20" class="edge">
<title>SeditComponent&#45;&gt;ServiceModule</title>
<path fill="none" stroke="black" d="M2972,-122.11C2972,-122.11 2972,-140.99 2972,-140.99"/>
<polygon fill="black" stroke="black" points="2968.5,-140.99 2972,-150.99 2975.5,-140.99 2968.5,-140.99"/>
</g>
<!-- SindexComponent -->
<g id="node25" class="node">
<title>SindexComponent</title>
<polygon fill="#ffffb3" stroke="black" points="2899.22,-122 2778.78,-122 2778.78,-86 2899.22,-86 2899.22,-122"/>
<text text-anchor="middle" x="2839" y="-99.8" font-family="Times,serif" font-size="14.00">SindexComponent</text>
</g>
<!-- SindexComponent&#45;&gt;ServiceModule -->
<g id="edge21" class="edge">
<title>SindexComponent&#45;&gt;ServiceModule</title>
<path fill="none" stroke="black" d="M2839,-122.13C2839,-142.57 2839,-173 2839,-173 2839,-173 2911.34,-173 2911.34,-173"/>
<polygon fill="black" stroke="black" points="2911.34,-176.5 2921.34,-173 2911.34,-169.5 2911.34,-176.5"/>
</g>
<!-- ServiceRoutingModule -->
<g id="node27" class="node">
<title>ServiceRoutingModule</title>
<polygon fill="#8dd3c7" stroke="black" points="2755.15,-122 2752.15,-126 2731.15,-126 2728.15,-122 2608.85,-122 2608.85,-86 2755.15,-86 2755.15,-122"/>
<text text-anchor="middle" x="2682" y="-99.8" font-family="Times,serif" font-size="14.00">ServiceRoutingModule</text>
</g>
<!-- ServiceRoutingModule&#45;&gt;ServiceModule -->
<g id="edge22" class="edge">
<title>ServiceRoutingModule&#45;&gt;ServiceModule</title>
<path fill="none" stroke="black" d="M2682,-122.01C2682,-144.49 2682,-180 2682,-180 2682,-180 2911.15,-180 2911.15,-180"/>
<polygon fill="black" stroke="black" points="2911.15,-183.5 2921.15,-180 2911.15,-176.5 2911.15,-183.5"/>
</g>
<!-- UaddComponent -->
<g id="node28" class="node">
<title>UaddComponent</title>
<polygon fill="#ffffb3" stroke="black" points="4015.65,-122 3904.35,-122 3904.35,-86 4015.65,-86 4015.65,-122"/>
<text text-anchor="middle" x="3960" y="-99.8" font-family="Times,serif" font-size="14.00">UaddComponent</text>
</g>
<!-- UserModule -->
<g id="node32" class="node">
<title>UserModule</title>
<polygon fill="#8dd3c7" stroke="black" points="3729.98,-187 3726.98,-191 3705.98,-191 3702.98,-187 3644.02,-187 3644.02,-151 3729.98,-151 3729.98,-187"/>
<text text-anchor="middle" x="3687" y="-164.8" font-family="Times,serif" font-size="14.00">UserModule</text>
</g>
<!-- UaddComponent&#45;&gt;UserModule -->
<g id="edge23" class="edge">
<title>UaddComponent&#45;&gt;UserModule</title>
<path fill="none" stroke="black" d="M3960,-122.28C3960,-143.32 3960,-175 3960,-175 3960,-175 3740.26,-175 3740.26,-175"/>
<polygon fill="black" stroke="black" points="3740.26,-171.5 3730.26,-175 3740.26,-178.5 3740.26,-171.5"/>
</g>
<!-- UdeleteComponent -->
<g id="node29" class="node">
<title>UdeleteComponent</title>
<polygon fill="#ffffb3" stroke="black" points="3886.36,-122 3761.64,-122 3761.64,-86 3886.36,-86 3886.36,-122"/>
<text text-anchor="middle" x="3824" y="-99.8" font-family="Times,serif" font-size="14.00">UdeleteComponent</text>
</g>
<!-- UdeleteComponent&#45;&gt;UserModule -->
<g id="edge24" class="edge">
<title>UdeleteComponent&#45;&gt;UserModule</title>
<path fill="none" stroke="black" d="M3824,-122.02C3824,-139.37 3824,-163 3824,-163 3824,-163 3740.35,-163 3740.35,-163"/>
<polygon fill="black" stroke="black" points="3740.35,-159.5 3730.35,-163 3740.35,-166.5 3740.35,-159.5"/>
</g>
<!-- UeditComponent -->
<g id="node30" class="node">
<title>UeditComponent</title>
<polygon fill="#ffffb3" stroke="black" points="3743.44,-122 3630.56,-122 3630.56,-86 3743.44,-86 3743.44,-122"/>
<text text-anchor="middle" x="3687" y="-99.8" font-family="Times,serif" font-size="14.00">UeditComponent</text>
</g>
<!-- UeditComponent&#45;&gt;UserModule -->
<g id="edge25" class="edge">
<title>UeditComponent&#45;&gt;UserModule</title>
<path fill="none" stroke="black" d="M3687,-122.11C3687,-122.11 3687,-140.99 3687,-140.99"/>
<polygon fill="black" stroke="black" points="3683.5,-140.99 3687,-150.99 3690.5,-140.99 3683.5,-140.99"/>
</g>
<!-- UindexComponent -->
<g id="node31" class="node">
<title>UindexComponent</title>
<polygon fill="#ffffb3" stroke="black" points="3613.05,-122 3490.95,-122 3490.95,-86 3613.05,-86 3613.05,-122"/>
<text text-anchor="middle" x="3552" y="-99.8" font-family="Times,serif" font-size="14.00">UindexComponent</text>
</g>
<!-- UindexComponent&#45;&gt;UserModule -->
<g id="edge26" class="edge">
<title>UindexComponent&#45;&gt;UserModule</title>
<path fill="none" stroke="black" d="M3552,-122.01C3552,-138.05 3552,-159 3552,-159 3552,-159 3633.91,-159 3633.91,-159"/>
<polygon fill="black" stroke="black" points="3633.91,-162.5 3643.91,-159 3633.91,-155.5 3633.91,-162.5"/>
</g>
<!-- UserRoutingModule -->
<g id="node33" class="node">
<title>UserRoutingModule</title>
<polygon fill="#8dd3c7" stroke="black" points="3466.59,-122 3463.59,-126 3442.59,-126 3439.59,-122 3335.41,-122 3335.41,-86 3466.59,-86 3466.59,-122"/>
<text text-anchor="middle" x="3401" y="-99.8" font-family="Times,serif" font-size="14.00">UserRoutingModule</text>
</g>
<!-- UserRoutingModule&#45;&gt;UserModule -->
<g id="edge27" class="edge">
<title>UserRoutingModule&#45;&gt;UserModule</title>
<path fill="none" stroke="black" d="M3401,-122.27C3401,-140.56 3401,-166 3401,-166 3401,-166 3633.87,-166 3633.87,-166"/>
<polygon fill="black" stroke="black" points="3633.87,-169.5 3643.87,-166 3633.87,-162.5 3633.87,-169.5"/>
</g>
</g>
</svg>
