<?xml version="1.0" encoding="UTF-8" standalone="no"?>
<!DOCTYPE svg PUBLIC "-//W3C//DTD SVG 1.1//EN"
 "http://www.w3.org/Graphics/SVG/1.1/DTD/svg11.dtd">
<!-- Generated by graphviz version 2.47.0 (20210316.0004)
 -->
<!-- Title: dependencies Pages: 1 -->
<svg width="742pt" height="211pt"
 viewBox="0.00 0.00 742.00 211.00" xmlns="http://www.w3.org/2000/svg" xmlns:xlink="http://www.w3.org/1999/xlink">
<g id="graph0" class="graph" transform="scale(1 1) rotate(0) translate(4 207)">
<title>dependencies</title>
<polygon fill="white" stroke="transparent" points="-4,4 -4,-207 738,-207 738,4 -4,4"/>
<text text-anchor="start" x="346.01" y="-42.4" font-family="Times-12" font-weight="bold" font-size="14.00">Legend</text>
<polygon fill="#ffffb3" stroke="transparent" points="133,-10 133,-30 153,-30 153,-10 133,-10"/>
<text text-anchor="start" x="156.63" y="-15.4" font-family="Times-12" font-size="14.00"> &#160;Declarations</text>
<polygon fill="#8dd3c7" stroke="transparent" points="246,-10 246,-30 266,-30 266,-10 246,-10"/>
<text text-anchor="start" x="269.73" y="-15.4" font-family="Times-12" font-size="14.00"> &#160;Module</text>
<polygon fill="#80b1d3" stroke="transparent" points="332,-10 332,-30 352,-30 352,-10 332,-10"/>
<text text-anchor="start" x="355.78" y="-15.4" font-family="Times-12" font-size="14.00"> &#160;Bootstrap</text>
<polygon fill="#fdb462" stroke="transparent" points="429,-10 429,-30 449,-30 449,-10 429,-10"/>
<text text-anchor="start" x="452.67" y="-15.4" font-family="Times-12" font-size="14.00"> &#160;Providers</text>
<polygon fill="#fb8072" stroke="transparent" points="525,-10 525,-30 545,-30 545,-10 525,-10"/>
<text text-anchor="start" x="548.73" y="-15.4" font-family="Times-12" font-size="14.00"> &#160;Exports</text>
<g id="clust1" class="cluster">
<title>cluster_ServiceModule</title>
<polygon fill="none" stroke="black" stroke-dasharray="1,5" points="8,-70 8,-195 726,-195 726,-70 8,-70"/>
</g>
<g id="clust7" class="cluster">
<title>cluster_ServiceModule_imports</title>
<polygon fill="none" stroke="black" points="556,-78 556,-130 718,-130 718,-78 556,-78"/>
</g>
<g id="clust2" class="cluster">
<title>cluster_ServiceModule_declarations</title>
<polygon fill="none" stroke="black" points="16,-78 16,-130 548,-130 548,-78 16,-78"/>
</g>
<!-- SaddComponent -->
<g id="node1" class="node">
<title>SaddComponent</title>
<polygon fill="#ffffb3" stroke="black" points="539.83,-122 430.17,-122 430.17,-86 539.83,-86 539.83,-122"/>
<text text-anchor="middle" x="485" y="-99.8" font-family="Times,serif" font-size="14.00">SaddComponent</text>
</g>
<!-- ServiceModule -->
<g id="node5" class="node">
<title>ServiceModule</title>
<polygon fill="#8dd3c7" stroke="black" points="401.53,-187 398.53,-191 377.53,-191 374.53,-187 300.47,-187 300.47,-151 401.53,-151 401.53,-187"/>
<text text-anchor="middle" x="351" y="-164.8" font-family="Times,serif" font-size="14.00">ServiceModule</text>
</g>
<!-- SaddComponent&#45;&gt;ServiceModule -->
<g id="edge1" class="edge">
<title>SaddComponent&#45;&gt;ServiceModule</title>
<path fill="none" stroke="black" d="M485,-122.02C485,-139.37 485,-163 485,-163 485,-163 411.66,-163 411.66,-163"/>
<polygon fill="black" stroke="black" points="411.66,-159.5 401.66,-163 411.66,-166.5 411.66,-159.5"/>
</g>
<!-- SdeleteComponent -->
<g id="node2" class="node">
<title>SdeleteComponent</title>
<polygon fill="#ffffb3" stroke="black" points="412.04,-122 289.96,-122 289.96,-86 412.04,-86 412.04,-122"/>
<text text-anchor="middle" x="351" y="-99.8" font-family="Times,serif" font-size="14.00">SdeleteComponent</text>
</g>
<!-- SdeleteComponent&#45;&gt;ServiceModule -->
<g id="edge2" class="edge">
<title>SdeleteComponent&#45;&gt;ServiceModule</title>
<path fill="none" stroke="black" d="M351,-122.11C351,-122.11 351,-140.99 351,-140.99"/>
<polygon fill="black" stroke="black" points="347.5,-140.99 351,-150.99 354.5,-140.99 347.5,-140.99"/>
</g>
<!-- SeditComponent -->
<g id="node3" class="node">
<title>SeditComponent</title>
<polygon fill="#ffffb3" stroke="black" points="272.11,-122 161.89,-122 161.89,-86 272.11,-86 272.11,-122"/>
<text text-anchor="middle" x="217" y="-99.8" font-family="Times,serif" font-size="14.00">SeditComponent</text>
</g>
<!-- SeditComponent&#45;&gt;ServiceModule -->
<g id="edge3" class="edge">
<title>SeditComponent&#45;&gt;ServiceModule</title>
<path fill="none" stroke="black" d="M217,-122.02C217,-139.37 217,-163 217,-163 217,-163 290.34,-163 290.34,-163"/>
<polygon fill="black" stroke="black" points="290.34,-166.5 300.34,-163 290.34,-159.5 290.34,-166.5"/>
</g>
<!-- SindexComponent -->
<g id="node4" class="node">
<title>SindexComponent</title>
<polygon fill="#ffffb3" stroke="black" points="144.22,-122 23.78,-122 23.78,-86 144.22,-86 144.22,-122"/>
<text text-anchor="middle" x="84" y="-99.8" font-family="Times,serif" font-size="14.00">SindexComponent</text>
</g>
<!-- SindexComponent&#45;&gt;ServiceModule -->
<g id="edge4" class="edge">
<title>SindexComponent&#45;&gt;ServiceModule</title>
<path fill="none" stroke="black" d="M84,-122.28C84,-143.32 84,-175 84,-175 84,-175 290.47,-175 290.47,-175"/>
<polygon fill="black" stroke="black" points="290.47,-178.5 300.47,-175 290.47,-171.5 290.47,-178.5"/>
</g>
<!-- ServiceRoutingModule -->
<g id="node6" class="node">
<title>ServiceRoutingModule</title>
<polygon fill="#8dd3c7" stroke="black" points="710.15,-122 707.15,-126 686.15,-126 683.15,-122 563.85,-122 563.85,-86 710.15,-86 710.15,-122"/>
<text text-anchor="middle" x="637" y="-99.8" font-family="Times,serif" font-size="14.00">ServiceRoutingModule</text>
</g>
<!-- ServiceRoutingModule&#45;&gt;ServiceModule -->
<g id="edge5" class="edge">
<title>ServiceRoutingModule&#45;&gt;ServiceModule</title>
<path fill="none" stroke="black" d="M637,-122.28C637,-143.32 637,-175 637,-175 637,-175 411.8,-175 411.8,-175"/>
<polygon fill="black" stroke="black" points="411.8,-171.5 401.8,-175 411.8,-178.5 411.8,-171.5"/>
</g>
</g>
</svg>
