<?xml version="1.0" encoding="UTF-8" standalone="no"?>
<!DOCTYPE svg PUBLIC "-//W3C//DTD SVG 1.1//EN"
 "http://www.w3.org/Graphics/SVG/1.1/DTD/svg11.dtd">
<!-- Generated by graphviz version 2.47.0 (20210316.0004)
 -->
<!-- Title: dependencies Pages: 1 -->
<svg width="928pt" height="211pt"
 viewBox="0.00 0.00 928.00 211.00" xmlns="http://www.w3.org/2000/svg" xmlns:xlink="http://www.w3.org/1999/xlink">
<g id="graph0" class="graph" transform="scale(1 1) rotate(0) translate(4 207)">
<title>dependencies</title>
<polygon fill="white" stroke="transparent" points="-4,4 -4,-207 924,-207 924,4 -4,4"/>
<text text-anchor="start" x="439.01" y="-42.4" font-family="Times-12" font-weight="bold" font-size="14.00">Legend</text>
<polygon fill="#ffffb3" stroke="transparent" points="226,-10 226,-30 246,-30 246,-10 226,-10"/>
<text text-anchor="start" x="249.63" y="-15.4" font-family="Times-12" font-size="14.00"> &#160;Declarations</text>
<polygon fill="#8dd3c7" stroke="transparent" points="339,-10 339,-30 359,-30 359,-10 339,-10"/>
<text text-anchor="start" x="362.73" y="-15.4" font-family="Times-12" font-size="14.00"> &#160;Module</text>
<polygon fill="#80b1d3" stroke="transparent" points="425,-10 425,-30 445,-30 445,-10 425,-10"/>
<text text-anchor="start" x="448.78" y="-15.4" font-family="Times-12" font-size="14.00"> &#160;Bootstrap</text>
<polygon fill="#fdb462" stroke="transparent" points="522,-10 522,-30 542,-30 542,-10 522,-10"/>
<text text-anchor="start" x="545.67" y="-15.4" font-family="Times-12" font-size="14.00"> &#160;Providers</text>
<polygon fill="#fb8072" stroke="transparent" points="618,-10 618,-30 638,-30 638,-10 618,-10"/>
<text text-anchor="start" x="641.73" y="-15.4" font-family="Times-12" font-size="14.00"> &#160;Exports</text>
<g id="clust1" class="cluster">
<title>cluster_PublicModule</title>
<polygon fill="none" stroke="black" stroke-dasharray="1,5" points="8,-70 8,-195 912,-195 912,-70 8,-70"/>
</g>
<g id="clust7" class="cluster">
<title>cluster_PublicModule_imports</title>
<polygon fill="none" stroke="black" points="748,-78 748,-130 904,-130 904,-78 748,-78"/>
</g>
<g id="clust2" class="cluster">
<title>cluster_PublicModule_declarations</title>
<polygon fill="none" stroke="black" points="16,-78 16,-130 740,-130 740,-78 16,-78"/>
</g>
<!-- PheaderComponent -->
<g id="node1" class="node">
<title>PheaderComponent</title>
<polygon fill="#ffffb3" stroke="black" points="732.42,-122 605.58,-122 605.58,-86 732.42,-86 732.42,-122"/>
<text text-anchor="middle" x="669" y="-99.8" font-family="Times,serif" font-size="14.00">PheaderComponent</text>
</g>
<!-- PublicModule -->
<g id="node5" class="node">
<title>PublicModule</title>
<polygon fill="#8dd3c7" stroke="black" points="573.83,-187 570.83,-191 549.83,-191 546.83,-187 478.17,-187 478.17,-151 573.83,-151 573.83,-187"/>
<text text-anchor="middle" x="526" y="-164.8" font-family="Times,serif" font-size="14.00">PublicModule</text>
</g>
<!-- PheaderComponent&#45;&gt;PublicModule -->
<g id="edge1" class="edge">
<title>PheaderComponent&#45;&gt;PublicModule</title>
<path fill="none" stroke="black" d="M669,-122.02C669,-139.37 669,-163 669,-163 669,-163 584.01,-163 584.01,-163"/>
<polygon fill="black" stroke="black" points="584.01,-159.5 574.01,-163 584.01,-166.5 584.01,-159.5"/>
</g>
<!-- PlayoutComponent -->
<g id="node2" class="node">
<title>PlayoutComponent</title>
<polygon fill="#ffffb3" stroke="black" points="588.11,-122 463.89,-122 463.89,-86 588.11,-86 588.11,-122"/>
<text text-anchor="middle" x="526" y="-99.8" font-family="Times,serif" font-size="14.00">PlayoutComponent</text>
</g>
<!-- PlayoutComponent&#45;&gt;PublicModule -->
<g id="edge2" class="edge">
<title>PlayoutComponent&#45;&gt;PublicModule</title>
<path fill="none" stroke="black" d="M526,-122.11C526,-122.11 526,-140.99 526,-140.99"/>
<polygon fill="black" stroke="black" points="522.5,-140.99 526,-150.99 529.5,-140.99 522.5,-140.99"/>
</g>
<!-- TimelineCommunicationComponent -->
<g id="node3" class="node">
<title>TimelineCommunicationComponent</title>
<polygon fill="#ffffb3" stroke="black" points="446.1,-122 223.9,-122 223.9,-86 446.1,-86 446.1,-122"/>
<text text-anchor="middle" x="335" y="-99.8" font-family="Times,serif" font-size="14.00">TimelineCommunicationComponent</text>
</g>
<!-- TimelineCommunicationComponent&#45;&gt;PublicModule -->
<g id="edge3" class="edge">
<title>TimelineCommunicationComponent&#45;&gt;PublicModule</title>
<path fill="none" stroke="black" d="M335,-122.02C335,-139.37 335,-163 335,-163 335,-163 468.3,-163 468.3,-163"/>
<polygon fill="black" stroke="black" points="468.3,-166.5 478.3,-163 468.3,-159.5 468.3,-166.5"/>
</g>
<!-- TimelinePlanningComponent -->
<g id="node4" class="node">
<title>TimelinePlanningComponent</title>
<polygon fill="#ffffb3" stroke="black" points="205.66,-122 24.34,-122 24.34,-86 205.66,-86 205.66,-122"/>
<text text-anchor="middle" x="115" y="-99.8" font-family="Times,serif" font-size="14.00">TimelinePlanningComponent</text>
</g>
<!-- TimelinePlanningComponent&#45;&gt;PublicModule -->
<g id="edge4" class="edge">
<title>TimelinePlanningComponent&#45;&gt;PublicModule</title>
<path fill="none" stroke="black" d="M115,-122.28C115,-143.32 115,-175 115,-175 115,-175 468.05,-175 468.05,-175"/>
<polygon fill="black" stroke="black" points="468.05,-178.5 478.05,-175 468.05,-171.5 468.05,-178.5"/>
</g>
<!-- PublicRoutingModule -->
<g id="node6" class="node">
<title>PublicRoutingModule</title>
<polygon fill="#8dd3c7" stroke="black" points="896.45,-122 893.45,-126 872.45,-126 869.45,-122 755.55,-122 755.55,-86 896.45,-86 896.45,-122"/>
<text text-anchor="middle" x="826" y="-99.8" font-family="Times,serif" font-size="14.00">PublicRoutingModule</text>
</g>
<!-- PublicRoutingModule&#45;&gt;PublicModule -->
<g id="edge5" class="edge">
<title>PublicRoutingModule&#45;&gt;PublicModule</title>
<path fill="none" stroke="black" d="M826,-122.28C826,-143.32 826,-175 826,-175 826,-175 583.87,-175 583.87,-175"/>
<polygon fill="black" stroke="black" points="583.87,-171.5 573.87,-175 583.87,-178.5 583.87,-171.5"/>
</g>
</g>
</svg>
