<?xml version="1.0" encoding="UTF-8" standalone="no"?>
<!DOCTYPE svg PUBLIC "-//W3C//DTD SVG 1.1//EN"
 "http://www.w3.org/Graphics/SVG/1.1/DTD/svg11.dtd">
<!-- Generated by graphviz version 2.47.0 (20210316.0004)
 -->
<!-- Title: dependencies Pages: 1 -->
<svg width="737pt" height="211pt"
 viewBox="0.00 0.00 737.00 211.00" xmlns="http://www.w3.org/2000/svg" xmlns:xlink="http://www.w3.org/1999/xlink">
<g id="graph0" class="graph" transform="scale(1 1) rotate(0) translate(4 207)">
<title>dependencies</title>
<polygon fill="white" stroke="transparent" points="-4,4 -4,-207 733,-207 733,4 -4,4"/>
<text text-anchor="start" x="343.51" y="-42.4" font-family="Times-12" font-weight="bold" font-size="14.00">Legend</text>
<polygon fill="#ffffb3" stroke="transparent" points="130.5,-10 130.5,-30 150.5,-30 150.5,-10 130.5,-10"/>
<text text-anchor="start" x="154.13" y="-15.4" font-family="Times-12" font-size="14.00"> &#160;Declarations</text>
<polygon fill="#8dd3c7" stroke="transparent" points="243.5,-10 243.5,-30 263.5,-30 263.5,-10 243.5,-10"/>
<text text-anchor="start" x="267.23" y="-15.4" font-family="Times-12" font-size="14.00"> &#160;Module</text>
<polygon fill="#80b1d3" stroke="transparent" points="329.5,-10 329.5,-30 349.5,-30 349.5,-10 329.5,-10"/>
<text text-anchor="start" x="353.28" y="-15.4" font-family="Times-12" font-size="14.00"> &#160;Bootstrap</text>
<polygon fill="#fdb462" stroke="transparent" points="426.5,-10 426.5,-30 446.5,-30 446.5,-10 426.5,-10"/>
<text text-anchor="start" x="450.17" y="-15.4" font-family="Times-12" font-size="14.00"> &#160;Providers</text>
<polygon fill="#fb8072" stroke="transparent" points="522.5,-10 522.5,-30 542.5,-30 542.5,-10 522.5,-10"/>
<text text-anchor="start" x="546.23" y="-15.4" font-family="Times-12" font-size="14.00"> &#160;Exports</text>
<g id="clust1" class="cluster">
<title>cluster_UserModule</title>
<polygon fill="none" stroke="black" stroke-dasharray="1,5" points="8,-70 8,-195 721,-195 721,-70 8,-70"/>
</g>
<g id="clust7" class="cluster">
<title>cluster_UserModule_imports</title>
<polygon fill="none" stroke="black" points="565,-78 565,-130 713,-130 713,-78 565,-78"/>
</g>
<g id="clust2" class="cluster">
<title>cluster_UserModule_declarations</title>
<polygon fill="none" stroke="black" points="16,-78 16,-130 557,-130 557,-78 16,-78"/>
</g>
<!-- UaddComponent -->
<g id="node1" class="node">
<title>UaddComponent</title>
<polygon fill="#ffffb3" stroke="black" points="548.65,-122 437.35,-122 437.35,-86 548.65,-86 548.65,-122"/>
<text text-anchor="middle" x="493" y="-99.8" font-family="Times,serif" font-size="14.00">UaddComponent</text>
</g>
<!-- UserModule -->
<g id="node5" class="node">
<title>UserModule</title>
<polygon fill="#8dd3c7" stroke="black" points="399.98,-187 396.98,-191 375.98,-191 372.98,-187 314.02,-187 314.02,-151 399.98,-151 399.98,-187"/>
<text text-anchor="middle" x="357" y="-164.8" font-family="Times,serif" font-size="14.00">UserModule</text>
</g>
<!-- UaddComponent&#45;&gt;UserModule -->
<g id="edge1" class="edge">
<title>UaddComponent&#45;&gt;UserModule</title>
<path fill="none" stroke="black" d="M493,-122.02C493,-139.37 493,-163 493,-163 493,-163 410.03,-163 410.03,-163"/>
<polygon fill="black" stroke="black" points="410.03,-159.5 400.03,-163 410.03,-166.5 410.03,-159.5"/>
</g>
<!-- UdeleteComponent -->
<g id="node2" class="node">
<title>UdeleteComponent</title>
<polygon fill="#ffffb3" stroke="black" points="419.36,-122 294.64,-122 294.64,-86 419.36,-86 419.36,-122"/>
<text text-anchor="middle" x="357" y="-99.8" font-family="Times,serif" font-size="14.00">UdeleteComponent</text>
</g>
<!-- UdeleteComponent&#45;&gt;UserModule -->
<g id="edge2" class="edge">
<title>UdeleteComponent&#45;&gt;UserModule</title>
<path fill="none" stroke="black" d="M357,-122.11C357,-122.11 357,-140.99 357,-140.99"/>
<polygon fill="black" stroke="black" points="353.5,-140.99 357,-150.99 360.5,-140.99 353.5,-140.99"/>
</g>
<!-- UeditComponent -->
<g id="node3" class="node">
<title>UeditComponent</title>
<polygon fill="#ffffb3" stroke="black" points="276.44,-122 163.56,-122 163.56,-86 276.44,-86 276.44,-122"/>
<text text-anchor="middle" x="220" y="-99.8" font-family="Times,serif" font-size="14.00">UeditComponent</text>
</g>
<!-- UeditComponent&#45;&gt;UserModule -->
<g id="edge3" class="edge">
<title>UeditComponent&#45;&gt;UserModule</title>
<path fill="none" stroke="black" d="M220,-122.02C220,-139.37 220,-163 220,-163 220,-163 303.65,-163 303.65,-163"/>
<polygon fill="black" stroke="black" points="303.65,-166.5 313.65,-163 303.65,-159.5 303.65,-166.5"/>
</g>
<!-- UindexComponent -->
<g id="node4" class="node">
<title>UindexComponent</title>
<polygon fill="#ffffb3" stroke="black" points="146.05,-122 23.95,-122 23.95,-86 146.05,-86 146.05,-122"/>
<text text-anchor="middle" x="85" y="-99.8" font-family="Times,serif" font-size="14.00">UindexComponent</text>
</g>
<!-- UindexComponent&#45;&gt;UserModule -->
<g id="edge4" class="edge">
<title>UindexComponent&#45;&gt;UserModule</title>
<path fill="none" stroke="black" d="M85,-122.28C85,-143.32 85,-175 85,-175 85,-175 303.9,-175 303.9,-175"/>
<polygon fill="black" stroke="black" points="303.9,-178.5 313.9,-175 303.9,-171.5 303.9,-178.5"/>
</g>
<!-- UserRoutingModule -->
<g id="node6" class="node">
<title>UserRoutingModule</title>
<polygon fill="#8dd3c7" stroke="black" points="704.59,-122 701.59,-126 680.59,-126 677.59,-122 573.41,-122 573.41,-86 704.59,-86 704.59,-122"/>
<text text-anchor="middle" x="639" y="-99.8" font-family="Times,serif" font-size="14.00">UserRoutingModule</text>
</g>
<!-- UserRoutingModule&#45;&gt;UserModule -->
<g id="edge5" class="edge">
<title>UserRoutingModule&#45;&gt;UserModule</title>
<path fill="none" stroke="black" d="M639,-122.28C639,-143.32 639,-175 639,-175 639,-175 410.14,-175 410.14,-175"/>
<polygon fill="black" stroke="black" points="410.14,-171.5 400.14,-175 410.14,-178.5 410.14,-171.5"/>
</g>
</g>
</svg>
